<?xml version="1.0" encoding="utf-8"?>
<!-- Generator: Adobe Illustrator 26.3.1, SVG Export Plug-In . SVG Version: 6.00 Build 0)  -->
<svg version="1.1" id="Layer_1" xmlns="http://www.w3.org/2000/svg" xmlns:xlink="http://www.w3.org/1999/xlink" x="0px" y="0px"
	 viewBox="0 0 36 48" style="enable-background:new 0 0 36 48;" xml:space="preserve">
<path d="M30,0H6C2.7,0,0,2.7,0,6v36c0,3.3,2.7,6,6,6h24c3.3,0,6-2.7,6-6V6C36,2.7,33.3,0,30,0z M12,40c0,1.1-0.9,2-2,2H8
	c-1.1,0-2-0.9-2-2v-2c0-1.1,0.9-2,2-2h2c1.1,0,2,0.9,2,2V40z M12,31c0,1.1-0.9,2-2,2H8c-1.1,0-2-0.9-2-2v-2c0-1.1,0.9-2,2-2h2
	c1.1,0,2,0.9,2,2V31z M12,22c0,1.1-0.9,2-2,2H8c-1.1,0-2-0.9-2-2v-2c0-1.1,0.9-2,2-2h2c1.1,0,2,0.9,2,2V22z M21,40c0,1.1-0.9,2-2,2
	h-2c-1.1,0-2-0.9-2-2v-2c0-1.1,0.9-2,2-2h2c1.1,0,2,0.9,2,2V40z M21,31c0,1.1-0.9,2-2,2h-2c-1.1,0-2-0.9-2-2v-2c0-1.1,0.9-2,2-2h2
	c1.1,0,2,0.9,2,2V31z M21,22c0,1.1-0.9,2-2,2h-2c-1.1,0-2-0.9-2-2v-2c0-1.1,0.9-2,2-2h2c1.1,0,2,0.9,2,2V22z M30,40c0,1.1-0.9,2-2,2
	h-2c-1.1,0-2-0.9-2-2v-2c0-1.1,0.9-2,2-2h2c1.1,0,2,0.9,2,2V40z M30,31c0,1.1-0.9,2-2,2h-2c-1.1,0-2-0.9-2-2v-2c0-1.1,0.9-2,2-2h2
	c1.1,0,2,0.9,2,2V31z M30,22c0,1.1-0.9,2-2,2h-2c-1.1,0-2-0.9-2-2v-2c0-1.1,0.9-2,2-2h2c1.1,0,2,0.9,2,2V22z M30,10c0,1.1-0.9,2-2,2
	H8c-1.1,0-2-0.9-2-2V8c0-1.1,0.9-2,2-2h20c1.1,0,2,0.9,2,2V10z" fill="#82b638"/>
</svg>
